<?xml version="1.0" encoding="UTF-8"?>
<svg viewBox="0 0 36 21" version="1.1" xmlns="http://www.w3.org/2000/svg" xmlns:xlink="http://www.w3.org/1999/xlink">
    <!-- Generator: Sketch 49.2 (51160) - http://www.bohemiancoding.com/sketch -->
    <title>VK</title>
    <desc>Created with Sketch.</desc>
    <defs></defs>
    <g id="Page-1" stroke="none" stroke-width="1" fill="none" fill-rule="evenodd">
        <g id="Social-Icons---Isolated" transform="translate(-506.000000, -1861.000000)" fill="#3E6FA1">
            <path d="M526.878056,1879.39451 C526.97096,1877.96497 527.615476,1875.73993 529.226185,1876.95348 C530.199347,1877.68858 530.971605,1878.75348 531.846056,1879.68832 C532.699605,1880.59877 533.718056,1881.39426 535.615605,1881.34548 C536.740895,1881.31645 539.972766,1881.42329 540.814702,1881.11671 C543.359089,1880.19348 538.85096,1875.97451 537.750056,1875.03039 C537.286702,1874.63322 536.767605,1874.06768 536.370443,1873.64729 C535.879218,1873.12819 535.643476,1872.60213 536.033669,1871.78806 L537.739605,1869.38884 C538.244766,1868.83722 540.113282,1866.1651 540.565024,1865.43348 C541.215347,1864.37903 542.549669,1862.30613 540.829798,1861.974 C539.862443,1861.78703 536.722314,1861.96122 535.527347,1861.96935 C533.173411,1861.98445 533.651863,1861.72432 532.490573,1864.40574 C531.717153,1866.18948 529.32954,1870.39335 528.063734,1870.87297 C525.716766,1871.76251 527.552766,1863.25026 526.563347,1861.77774 C525.96296,1860.88471 523.180508,1860.99619 521.878702,1861.01361 C520.366702,1861.03219 518.276379,1861.11232 517.835089,1862.35955 C517.969798,1862.47451 517.822314,1862.39671 518.083605,1862.50355 C518.271734,1862.58019 518.56554,1862.59761 518.884895,1862.76832 C519.16825,1862.91813 519.426056,1863.18174 519.57354,1863.41864 C520.286573,1864.55903 520.200637,1869.36329 519.610702,1870.52806 C518.506314,1872.70432 515.28025,1866.59013 514.727476,1865.50084 C513.937798,1863.94587 513.627734,1862.43387 512.73354,1862.04716 C512.08554,1861.76845 508.412379,1861.92406 507.424121,1861.94032 C506.519476,1861.95426 505.739089,1862.0971 506.082831,1863.16897 C506.255863,1863.70897 506.66696,1864.46961 506.915476,1865.01426 C508.447218,1868.37619 510.841798,1872.50342 512.951863,1875.29981 C515.333669,1878.45503 518.854702,1881.25026 523.305927,1881.28626 C526.50296,1881.31181 526.744508,1881.45348 526.878056,1879.39451" id="VK"></path>
        </g>
    </g>
</svg>